<?xml version="1.0" standalone="no"?>
<!DOCTYPE svg PUBLIC "-//W3C//DTD SVG 20010904//EN"
 "https://www.w3.org/TR/2001/REC-SVG-20010904/DTD/svg10.dtd">
<svg version="1.0" xmlns="https://www.w3.org/2000/svg"
 width="1000.000000pt" height="1000.000000pt" viewBox="0 0 1000.000000 1000.000000"
 preserveAspectRatio="xMidYMid meet">
<metadata>
Created by potrace 1.11, written by Peter Selinger 2001-2013
</metadata>
<g transform="translate(0.000000,1000.000000) scale(0.100000,-0.100000)"
fill="#000000" stroke="none">
<path d="M6868 7156 c-46 -31 -77 -92 -97 -194 -17 -80 -17 -89 -2 -109 18
-25 49 -33 79 -22 11 4 33 34 50 70 34 70 34 69 71 -32 26 -73 32 -102 23
-116 -4 -7 -37 -22 -72 -35 -54 -19 -68 -29 -85 -60 -16 -30 -17 -39 -6 -52
17 -20 68 -20 139 -2 53 14 53 14 63 -10 20 -53 13 -65 -92 -182 -58 -64 -103
-154 -115 -230 -3 -20 -8 -40 -10 -44 -12 -19 -19 -181 -18 -418 0 -292 13
-399 75 -622 83 -300 323 -812 557 -1191 37 -59 72 -115 77 -126 19 -33 74
-91 107 -111 44 -27 89 -26 114 3 54 61 71 154 79 439 13 413 96 715 295 1073
240 432 555 750 741 748 57 -1 111 -34 135 -83 43 -89 18 -352 -55 -569 -34
-101 -121 -307 -142 -336 -4 -5 -23 -39 -42 -75 -19 -36 -94 -166 -167 -290
-161 -271 -274 -493 -324 -632 -100 -278 -126 -504 -73 -635 30 -75 39 -114
29 -129 -4 -6 -26 -23 -50 -38 -55 -34 -69 -68 -47 -118 10 -25 51 -22 109 7
27 14 53 25 58 25 5 0 18 -21 29 -47 58 -136 98 -183 154 -183 29 0 36 4 41
25 10 40 -4 88 -53 191 -49 100 -48 113 1 114 31 0 83 38 96 70 25 60 -32 101
-113 79 -23 -6 -50 -17 -61 -25 -11 -8 -26 -14 -33 -14 -23 0 -45 101 -48 220
-6 222 59 427 243 760 76 138 81 148 174 305 202 341 302 547 363 748 14 48
29 100 31 115 3 15 10 47 15 72 6 25 13 95 16 155 5 105 4 114 -27 195 -46
126 -48 156 -11 207 17 23 37 50 45 60 8 10 45 55 81 101 36 45 67 82 68 82 1
0 2 -48 2 -107 0 -130 7 -158 43 -176 34 -18 62 -14 83 12 23 28 20 398 -3
453 -33 75 -94 91 -197 51 -87 -33 -161 -88 -174 -127 -14 -41 18 -82 62 -78
37 3 41 12 -45 -118 -95 -144 -96 -145 -217 -145 -94 0 -107 -3 -167 -31 -139
-67 -291 -200 -426 -374 -227 -291 -424 -682 -503 -995 -43 -173 -58 -291 -66
-531 -5 -153 -14 -286 -21 -293 -6 -6 -40 38 -118 154 -116 173 -188 311 -381
730 -71 153 -114 274 -154 430 -25 97 -36 147 -56 270 -19 118 -26 416 -12
565 15 163 68 320 130 381 127 127 331 60 498 -164 78 -104 137 -228 204 -430
58 -172 95 -251 123 -266 45 -23 89 38 78 107 -15 94 -125 373 -203 514 -130
235 -316 390 -520 433 -34 7 -66 16 -72 20 -15 9 -14 85 1 85 27 0 96 42 106
65 10 21 8 27 -15 45 -25 19 -39 22 -111 23 -27 1 -34 5 -38 26 -3 14 -10 39
-15 55 -5 16 -9 31 -9 33 0 2 25 -14 56 -36 59 -42 118 -61 136 -43 6 6 12 25
14 44 4 30 -3 40 -98 131 -131 126 -191 167 -251 172 -35 3 -54 -2 -79 -19z"/>
<path d="M5007 6804 c-1 -1 -45 -5 -97 -8 -52 -3 -104 -8 -115 -10 -11 -2 -42
-7 -70 -10 -91 -12 -288 -55 -418 -91 -71 -19 -138 -37 -150 -39 -60 -11 -136
-39 -155 -57 -26 -23 -29 -71 -6 -90 27 -22 112 -14 214 20 76 26 329 92 400
106 8 1 35 6 60 11 25 4 47 8 50 9 3 1 32 5 65 9 33 4 74 9 90 11 44 6 254 6
300 0 163 -21 285 -105 316 -218 12 -45 14 -138 4 -190 -4 -18 -24 -89 -46
-158 -70 -222 -78 -302 -39 -378 53 -104 166 -150 368 -149 65 0 160 6 212 14
209 30 208 30 65 -29 -357 -148 -641 -258 -842 -327 -110 -38 -179 -46 -225
-27 -41 17 -55 37 -64 94 -10 62 -44 114 -97 147 -42 26 -59 30 -125 31 -41 1
-107 -4 -146 -11 -39 -7 -87 -15 -106 -18 -40 -7 -183 -34 -220 -41 -40 -8
-152 -45 -182 -61 -22 -11 -28 -12 -29 -2 0 7 -2 27 -4 43 -7 57 -15 151 -20
255 -4 58 -8 125 -11 150 -2 25 -7 209 -10 410 -7 420 -9 433 -77 438 -30 3
-43 -2 -67 -27 l-31 -30 17 -38 c30 -69 33 -105 32 -383 0 -284 7 -475 27
-680 3 -25 7 -72 10 -105 3 -33 8 -77 10 -97 10 -81 14 -115 21 -178 3 -36 8
-73 9 -83 2 -9 7 -54 10 -99 4 -46 8 -85 10 -88 2 -3 6 -39 9 -80 4 -41 9 -89
11 -105 2 -17 6 -64 10 -105 3 -41 8 -86 10 -100 2 -14 6 -61 10 -105 3 -44 7
-96 10 -115 2 -19 7 -80 10 -135 8 -126 13 -201 21 -290 4 -38 8 -185 9 -325
1 -140 5 -268 10 -285 4 -16 19 -45 32 -62 28 -39 63 -43 94 -12 20 20 21 28
15 123 -7 110 -12 196 -21 381 -4 66 -8 136 -10 155 -2 19 -6 78 -10 130 -3
52 -8 106 -10 120 -2 14 -7 59 -10 100 -4 41 -8 86 -10 100 -2 14 -7 59 -10
100 -3 41 -7 82 -10 90 -2 8 -6 49 -10 90 -3 41 -8 91 -10 110 -2 19 -6 58 -9
85 -3 28 -8 75 -11 105 -10 102 -14 145 -20 220 -3 41 -8 100 -11 131 l-4 56
52 6 c29 3 88 19 130 36 99 39 362 94 456 95 69 1 75 -1 97 -27 14 -15 34 -58
45 -97 37 -124 97 -157 268 -147 53 4 140 18 192 31 82 21 357 128 440 171 62
32 513 209 627 246 131 43 183 77 183 121 0 58 -47 76 -125 47 -58 -22 -58
-22 -50 -9 12 19 -6 48 -36 60 -54 23 -223 12 -409 -25 -51 -10 -246 -7 -289
4 -24 7 -57 25 -72 40 -37 37 -34 79 20 251 107 339 104 495 -12 627 -59 67
-180 130 -287 147 -65 11 -248 25 -253 20z"/>
<path d="M5018 6642 c-34 -22 -69 -62 -115 -131 -48 -71 -126 -161 -257 -296
-136 -138 -167 -183 -168 -236 0 -28 5 -44 18 -54 45 -34 184 18 394 148 42
25 40 23 -56 -89 -80 -92 -114 -152 -118 -206 -4 -54 9 -85 41 -93 34 -8 69
16 83 60 7 20 54 88 105 152 103 128 148 208 148 265 0 119 -114 128 -281 20
-26 -17 -26 -16 5 23 18 22 71 81 118 130 95 100 173 207 178 245 2 14 0 37
-5 53 -12 33 -48 36 -90 9z"/>
<path d="M2968 6535 c-2 -2 -32 -6 -68 -9 -36 -4 -74 -9 -85 -11 -11 -2 -56
-7 -100 -10 -120 -9 -205 -18 -330 -34 -44 -6 -96 -13 -115 -15 -19 -3 -87
-11 -150 -20 -63 -8 -144 -17 -180 -21 -36 -3 -83 -8 -105 -10 -22 -2 -80 -7
-130 -10 -49 -4 -108 -8 -130 -10 -197 -17 -534 -24 -695 -14 -41 3 -92 1
-113 -4 -60 -15 -69 -38 -82 -212 -4 -44 -8 -98 -10 -120 -2 -22 -7 -80 -10
-130 -4 -49 -8 -114 -11 -144 -5 -75 -12 -117 -41 -261 -14 -69 -27 -161 -28
-205 -2 -44 -6 -87 -10 -96 -3 -8 -2 -26 4 -40 24 -63 87 -92 182 -84 30 2
104 7 164 10 226 12 246 14 282 32 69 34 90 89 72 188 -5 27 -5 55 1 70 8 20
5 29 -12 45 -12 11 -25 20 -30 20 -10 0 -50 79 -89 177 -17 43 -39 96 -49 118
-10 22 -50 119 -90 215 -40 96 -83 196 -96 222 -13 26 -24 51 -24 55 0 4 69 9
153 9 83 1 213 4 287 8 74 3 198 9 275 12 l140 5 0 -68 c3 -365 16 -1284 19
-1378 6 -142 15 -328 21 -405 2 -30 6 -116 10 -190 3 -74 8 -184 10 -245 3
-60 8 -177 10 -258 11 -361 20 -369 388 -382 76 -2 141 -6 145 -9 4 -2 43 -7
87 -11 44 -4 87 -9 95 -10 8 -2 47 -6 85 -11 39 -4 73 -9 78 -10 4 -1 23 -2
44 -3 20 0 34 -3 32 -5 -13 -14 -258 -30 -599 -41 -262 -8 -468 -16 -560 -21
-174 -9 -241 -14 -268 -18 -15 -2 -58 -7 -95 -11 -37 -3 -76 -8 -85 -10 -9 -1
-42 -6 -72 -10 -30 -3 -66 -8 -80 -10 -14 -2 -47 -6 -75 -10 -130 -17 -165
-81 -67 -122 27 -11 49 -12 105 -4 89 13 144 19 227 26 36 3 79 7 95 10 17 2
66 7 110 10 44 3 100 8 125 10 108 9 307 19 625 30 328 11 491 21 705 41 89 8
227 44 255 65 83 66 -47 155 -270 184 -27 3 -63 8 -80 10 -28 4 -139 18 -230
30 -22 3 -80 10 -130 15 -49 6 -103 13 -120 15 -16 3 -79 7 -140 10 -60 4
-120 8 -133 11 -29 6 -48 50 -56 129 -17 176 -19 217 -32 605 -3 96 -7 209 -9
250 -10 262 -17 413 -21 465 -2 33 -6 331 -9 663 -4 509 -7 607 -20 632 -17
33 -15 36 40 39 38 2 167 19 210 27 104 21 295 50 385 59 30 3 75 7 100 10 25
3 72 7 105 10 69 5 160 15 193 20 19 3 21 0 18 -23 -3 -15 -7 -52 -10 -82 -3
-30 -8 -64 -10 -75 -2 -11 -7 -47 -10 -80 -4 -33 -9 -71 -11 -85 -3 -14 -7
-43 -10 -65 -5 -44 -32 -217 -39 -250 -3 -11 -16 -67 -30 -125 -39 -165 -39
-249 2 -290 42 -42 86 -49 313 -51 188 -2 209 -1 239 17 117 68 105 172 -79
734 -49 151 -104 325 -121 385 -17 61 -39 116 -48 123 -14 10 -124 16 -134 7z
m187 -575 c29 -96 65 -215 80 -265 14 -49 30 -100 35 -112 10 -23 9 -23 -93
-24 -111 -1 -201 -6 -231 -13 -21 -5 -20 12 8 169 8 44 17 98 20 120 4 22 11
67 16 100 5 33 12 83 15 110 3 28 8 64 10 80 2 17 7 50 10 75 11 85 14 105 15
115 2 10 25 -62 115 -355z m-2256 -82 c44 -103 107 -248 141 -323 34 -75 61
-138 59 -140 -8 -7 -82 -14 -217 -21 l-143 -6 5 43 c10 82 26 224 31 289 3 36
8 81 10 100 7 66 18 195 19 227 0 18 4 29 8 25 4 -4 43 -92 87 -194z m2364
-447 c24 -1 37 -6 37 -14 0 -9 -18 -15 -57 -17 -79 -4 -260 -4 -305 0 -62 6
-27 22 64 29 74 5 124 6 261 2z m-2111 -176 c2 -15 -3 -19 -27 -21 -48 -2
-198 -16 -216 -19 -21 -4 -101 -7 -156 -6 -31 1 -43 5 -43 16 0 30 30 35 305
51 61 4 112 8 114 10 7 7 19 -9 23 -31z"/>
</g>
</svg>
