<?xml version="1.0" standalone="no"?>
<!DOCTYPE svg PUBLIC "-//W3C//DTD SVG 20010904//EN"
 "http://www.w3.org/TR/2001/REC-SVG-20010904/DTD/svg10.dtd">
<svg version="1.0" xmlns="http://www.w3.org/2000/svg"
 width="1000.000000pt" height="1000.000000pt" viewBox="0 0 1000.000000 1000.000000"
 preserveAspectRatio="xMidYMid meet">
<metadata>
Created by potrace 1.11, written by Peter Selinger 2001-2013
</metadata>
<g transform="translate(0.000000,1000.000000) scale(0.100000,-0.100000)"
fill="#000000" stroke="none">
<path d="M4529 9996 c-2 -2 -49 -6 -104 -10 -55 -3 -111 -8 -125 -10 -14 -3
-50 -7 -80 -10 -30 -4 -66 -8 -80 -10 -14 -3 -74 -12 -135 -21 -309 -46 -683
-131 -1180 -268 -110 -30 -236 -63 -280 -72 -277 -58 -434 -140 -497 -257 -18
-32 -18 -31 -18 122 0 174 -15 266 -56 348 -35 68 -110 136 -177 158 -178 59
-426 -54 -515 -236 -38 -78 -38 -172 2 -295 16 -49 32 -94 36 -100 17 -22 33
-136 36 -250 1 -66 5 -311 8 -545 3 -234 8 -497 11 -585 10 -303 23 -599 30
-685 2 -30 7 -101 10 -158 2 -56 7 -130 10 -165 2 -34 7 -98 10 -142 3 -44 7
-104 10 -132 9 -94 14 -156 20 -233 3 -41 8 -93 10 -115 2 -22 7 -71 10 -110
3 -38 8 -88 10 -110 2 -22 7 -71 10 -110 3 -38 8 -88 10 -110 2 -22 7 -71 10
-110 3 -38 8 -90 10 -115 3 -25 7 -74 10 -110 3 -36 8 -83 10 -105 2 -22 7
-78 10 -125 4 -47 8 -101 11 -120 2 -19 6 -73 9 -120 3 -47 7 -105 10 -130 2
-25 7 -72 9 -105 13 -143 22 -245 32 -335 3 -25 7 -67 9 -95 5 -50 10 -96 20
-190 3 -27 7 -75 10 -105 3 -30 7 -73 10 -95 8 -69 14 -128 20 -190 3 -33 8
-73 10 -90 2 -16 9 -79 15 -140 6 -60 13 -126 15 -145 2 -19 7 -62 10 -95 7
-84 23 -244 30 -305 4 -36 10 -113 30 -375 3 -44 8 -105 10 -135 8 -90 14
-198 20 -310 6 -118 12 -244 20 -370 8 -147 20 -414 30 -665 3 -77 7 -178 10
-225 2 -47 7 -168 10 -270 9 -283 17 -363 47 -459 34 -111 75 -169 153 -219
36 -24 49 -27 140 -27 88 0 107 3 155 26 63 30 107 68 137 119 30 50 61 146
69 216 8 66 8 303 0 343 -3 14 -8 64 -12 111 -3 47 -7 87 -9 90 -4 7 -14 155
-21 300 -12 277 -15 337 -39 770 -2 47 -7 128 -10 180 -3 52 -7 120 -9 150 -3
30 -8 107 -11 170 -4 63 -9 140 -11 170 -2 30 -6 91 -8 135 -3 44 -7 103 -10
130 -3 28 -7 95 -11 150 -3 55 -8 116 -10 135 -2 19 -7 73 -10 120 -4 47 -8
101 -10 120 -2 19 -6 71 -10 115 -3 44 -8 96 -10 115 -2 19 -7 69 -10 110 -3
41 -8 88 -10 105 -2 16 -7 66 -10 110 -4 44 -8 94 -10 110 -3 17 -7 57 -10 90
-3 33 -7 78 -10 100 -2 22 -7 67 -10 100 -7 75 -15 161 -20 200 -2 17 -6 62
-10 100 -3 39 -8 84 -10 101 -2 16 -7 59 -10 95 -3 35 -7 78 -10 94 -2 17 -7
62 -10 100 -4 39 -8 81 -11 95 -2 14 -6 59 -9 100 -4 41 -8 86 -10 100 -3 14
-7 56 -10 95 -4 38 -8 76 -10 83 -8 23 4 12 20 -18 35 -68 118 -129 204 -150
100 -24 190 -8 421 72 96 33 238 77 300 93 8 2 69 17 135 34 189 47 347 77
595 112 80 11 161 23 180 26 63 10 117 8 132 -5 14 -11 38 -111 53 -221 31
-218 168 -364 405 -430 101 -28 160 -34 320 -34 187 0 237 7 460 59 93 22 445
134 510 163 14 6 106 40 205 76 159 59 288 108 350 135 11 4 92 36 180 70 88
35 174 69 190 76 46 21 687 277 900 361 384 150 524 202 686 257 256 85 344
141 407 261 38 72 41 186 7 269 -46 112 -160 199 -275 209 -59 5 -163 -17
-274 -58 -38 -14 -70 -25 -72 -25 -2 0 8 24 21 53 73 158 -4 343 -174 420 -52
24 -206 32 -296 17 -27 -5 -66 -11 -85 -14 -19 -4 -46 -8 -60 -11 -31 -6 -71
-12 -130 -20 -25 -3 -56 -8 -70 -10 -14 -2 -45 -6 -70 -10 -25 -3 -61 -8 -80
-10 -294 -42 -703 -51 -870 -21 -14 3 -51 7 -82 10 -118 12 -144 40 -135 145
3 38 17 102 30 142 156 468 238 785 262 1009 6 65 7 284 1 320 -3 14 -9 58
-15 98 -20 132 -80 288 -159 412 -45 71 -189 214 -270 269 -210 141 -515 243
-857 286 -27 4 -66 9 -85 11 -41 6 -606 15 -611 10z m606 -689 c17 -3 55 -8
85 -12 206 -26 420 -113 514 -209 28 -29 56 -59 61 -67 18 -24 55 -122 63
-170 13 -70 7 -232 -13 -334 -9 -49 -19 -101 -22 -115 -7 -42 -93 -310 -193
-605 -22 -66 -42 -129 -45 -140 -2 -11 -7 -31 -10 -45 -4 -14 -12 -63 -19
-110 -60 -415 140 -724 544 -843 75 -22 121 -32 245 -52 114 -18 443 -24 655
-11 263 16 343 23 575 55 38 6 71 9 72 7 2 -1 -30 -15 -69 -30 -40 -16 -91
-36 -113 -46 -22 -9 -51 -21 -65 -25 -14 -4 -38 -13 -55 -20 -16 -8 -88 -37
-160 -65 -71 -28 -155 -62 -185 -75 -30 -13 -136 -55 -235 -94 -99 -40 -189
-76 -200 -81 -20 -9 -327 -130 -395 -155 -180 -67 -271 -99 -500 -177 -146
-50 -315 -107 -375 -128 -144 -49 -265 -74 -322 -65 -58 8 -77 39 -99 164 -21
120 -37 169 -77 235 -128 212 -337 311 -651 309 -157 -1 -266 -14 -516 -59
-74 -14 -151 -27 -170 -30 -19 -3 -43 -7 -52 -10 -10 -3 -30 -7 -45 -10 -16
-3 -57 -12 -93 -20 -36 -9 -76 -18 -90 -20 -119 -22 -618 -165 -733 -210 -122
-48 -187 -107 -229 -208 -17 -40 -17 -41 -18 -11 -1 17 -3 38 -5 47 -2 9 -6
54 -9 100 -4 46 -9 97 -11 113 -2 17 -7 62 -10 100 -3 39 -7 88 -10 110 -2 22
-7 76 -10 120 -4 44 -8 96 -10 115 -2 19 -7 69 -10 110 -3 41 -7 102 -10 135
-7 94 -14 201 -20 305 -3 52 -7 140 -10 195 -3 55 -8 163 -10 240 -3 77 -7
203 -10 280 -5 159 -13 552 -19 955 -4 213 -2 271 7 256 66 -107 177 -166 302
-161 77 4 96 8 431 104 224 64 511 143 604 166 8 2 35 8 60 14 25 7 57 13 73
16 15 2 31 6 36 9 5 3 55 15 112 26 57 12 113 23 124 26 48 11 305 55 354 60
30 3 62 7 71 9 10 2 53 6 96 10 43 4 88 9 99 11 11 2 85 7 165 10 80 4 146 8
148 9 5 4 377 -3 407 -8z"/>
<path d="M5065 9123 c-79 -15 -176 -82 -266 -184 -64 -73 -90 -106 -211 -274
-93 -128 -96 -132 -221 -270 -45 -49 -106 -117 -136 -150 -30 -33 -57 -62 -61
-65 -3 -3 -91 -102 -195 -220 -104 -118 -213 -240 -241 -270 -205 -218 -256
-351 -190 -495 13 -27 40 -66 61 -87 120 -116 362 -57 705 172 83 55 87 57 58
21 -16 -18 -28 -36 -28 -40 0 -4 -8 -16 -18 -27 -67 -74 -185 -292 -208 -386
-2 -10 -7 -28 -10 -40 -10 -43 -4 -127 12 -168 42 -104 202 -171 306 -127 61
26 106 85 184 244 84 172 120 223 284 413 64 74 129 153 145 175 17 22 33 42
36 45 3 3 25 36 47 74 69 115 104 230 104 341 1 135 -45 209 -162 263 -67 32
-187 39 -271 17 -30 -8 -56 -15 -58 -15 -3 0 51 57 120 126 68 70 133 136 144
148 21 21 148 178 183 226 33 45 80 134 103 195 28 74 31 175 6 221 -49 94
-143 152 -222 137z"/>
</g>
</svg>
