<svg xmlns="https://www.w3.org/2000/svg" viewBox="0 0 379 379.58"><title>ipm-icon-menu</title><g id="p"><path d="M116.89,143.9q57.71,1.35,115.41,2.88c11.36.31,33.12,5.19,42.83-2.6,10.71-8.58-3.52-16.72-11.95-18-17.26-2.55-36.06-1.13-53.51-1.65-19-.57-37.93-1.12-56.9-1.38-12.65-.18-31.87-4.3-43.9.62C94,129.87,105.12,143.63,116.89,143.9Z"/><path d="M115.86,198.65c36.29,2,72.75,1.73,109.09,3.4,13.3.62,28.3,2.76,41.23-1.39,14.64-4.7,11.75-16.56-2.46-19.37-7.47-1.47-15.73.69-23.28.87-8.89.21-17.77-.29-26.64-.8-18.28-1.05-36.54-1.89-54.85-2-9.48-.06-19,.24-28.46-.1-6.94-.25-14.88-2-21.63.33C93.49,184.85,104.16,198,115.86,198.65Z"/><path d="M100.11,246.8c4.82,13.48,28.84,8.77,39.54,8.71,21.16-.13,42.35.16,63.5.66,18.42.44,37.2,2.53,55.61,1.88,7.84-.28,27.39-4.66,18.21-16.7-6.14-8-22.94-5.66-31.72-5.85-21.92-.45-43.81-1.41-65.73-1.69C172.2,233.71,92.78,226.4,100.11,246.8Z"/></g></svg>