<svg xmlns="https://www.w3.org/2000/svg" viewBox="0 0 379 379.58"><title>ipm-icon-close</title><g id="p"><path d="M268.87,121.63c2.08-18.53-20.64-8-27.78-2.08-18.22,15-33.57,33.52-50.36,50.11-15-16.61-30.18-33.81-48.16-47.23-5.38-4-15.38-12-22.67-8.77-4,1.76-5.3,6.91-5,10.91.55,7.31,6,13.53,10.87,18.45,5.61,5.67,12,10.48,17.7,16,9.75,9.48,19.36,19.11,28.92,28.78-11.25,11.21-22.11,22.93-34,33.44-9.52,8.41-20.67,17.07-26.36,28.84-4,8.29-2.42,17.55,8.15,17.45,12.29-.12,20.6-12.21,28.51-20.12l38.06-38a14,14,0,0,1,2.08-2.07c1.91-1.16.26-1.71,2.49-.24a23.38,23.38,0,0,1,3.33,3.41c2.93,3,5.81,6.12,8.67,9.22,5.76,6.26,11.41,12.61,17.18,18.85,4.67,5.06,42.12,46.75,47.55,21.94,2.89-13.18-11.94-23.6-20-31.44-13.63-13.29-26.44-27.51-39.66-41.22,12.06-12,23.84-24.31,36.69-35.44C254,144.73,267.42,134.51,268.87,121.63Z"/></g></svg>