<svg id="Layer_1" data-name="Layer 1" xmlns="http://www.w3.org/2000/svg" viewBox="0 0 108 110.01"><defs><style>.cls-1{fill:#3fa9f5;}</style></defs><title>ipm-icon-social-justice</title><g id="p"><path class="cls-1" d="M10.25,109.12c0-7-.22-5.58,3.87-6.83a34.74,34.74,0,0,0,13.52-8.21c16.41-15.48,21.4-45,21.4-72-12.13,4.15-24.25,8.09-36.39,12l9.57,22L0,56.37,7,38.26C8.17,35.1,9,31.5,11,29.81s5.84-2.06,8.2-2.9l14.9-5.26L70.31,8.87l15.6-5.51C88.64,2.36,92.59-.2,95.4,0S98,2.3,99.66,6.46L108,27.12H84.76l9.06-22.5L76.08,11.4,63.29,16.29c-1.92.73-6.12,2.14-8.75,3.34-1,1-.13,9,.16,12.17a209,209,0,0,0,5.07,31C62.69,74.43,67,86,73.71,93.87a25.85,25.85,0,0,0,11.07,7.9c1,.35,6.35.29,6.84,1.1.13.23.21,5.91-.09,6.25Z"/></g></svg>