<svg xmlns="http://www.w3.org/2000/svg" viewBox="0 0 775.87 379.58"><defs><style>.cls-1{fill:#eb366e;}</style></defs><title>ipm-icon-logo</title><g id="m"><path class="cls-1" d="M775.69,96.28c-2-11.28,5.76-40.62-10.83-41.2-4.85-.17-18,6-21.41,9.86-5.51,6.33-.06,13.5,7.42,9.07-4.32,5.28-12.47,21.52-18.56,24.27-2.07.94-9.58-1.13-12.7-.65a41.81,41.81,0,0,0-14.49,5.44c-24.28,14-42.56,41.83-56,65.71-13.61,24.23-22.84,50-25.8,77.67-1.64,15.36-.18,31.46-2.93,46.61-18.51-21.81-30.81-50.66-43-76.3-16-33.68-22.71-67.07-20.81-104.34,1-19.35,6.26-56.51,34.89-44.56,20.34,8.5,32.67,35,38.62,54.6,1.24,4.07,9.48,35.31,17.18,20.76,3.43-6.49-7.6-29.77-10.29-36.5-9.56-23.82-26.19-46-51.78-52.21-4.72-1.15-8.68.74-8.23-6.43.39-6.1.63-1.12,6.44-4.59,11.93-7.12-2.12-11.65-9.79-9.69-.83-3.72-1.75-7.46-2.91-11.1,3,2.88,19.77,16.69,18.4,2.12-.29-3.15-3.42-4.39-5.48-6.29-5.49-5.07-11.61-12.13-18.1-15.89C551.3-5.63,544.77,7,542.83,19.93c-.57,3.85-2.64,7.44,1.86,10,7.53,4.33,9.87-7.29,12.11-11.73,1.1,2.69,7.31,15.49,5.83,19.16-.81,2-10.55,3.44-12,5.22-11.41,14.06,11.08,7.49,14.63,6.11,2,8.33,2.52,5.77-.92,10.82-3.9,5.71-9.6,8.89-12.76,15.87-6.88,15.21-6.63,33.8-6.88,50.16-.53,33.48,7,63.25,21.1,93.48,10.42,22.33,21.26,45.27,34.56,66,4,6.25,10.37,19,17.76,22.12,11.76,5,10.12-8.67,15-12.88l-1.26.26c2.08-13.48,1.39-27.6,2.43-41.21,1.94-25.38,9.27-49.13,21-71.65,11.91-22.86,27.37-46.7,47.69-63,7.07-5.68,19-13.88,28.32-8.27s7.19,22,6,30.9c-7.5,57.35-55.33,99.91-69.63,155.19-3.05,11.79-5.82,24.21-3.46,36.35.49,2.53,5.51,12.34,4.87,15-.9,3.78-9.11,4.42-9.81,9.63-1.64,12.19,11.06,4.06,15.43,1.27,2.72,4.7,7.16,18.94,13.17,20.4,13.31,3.23,3.58-14.69,1.81-17.81-9.29-16.46,0-5.44,7.46-15,3.35-4.27.93-7.86-3.49-9.09-4.61-1.27-10.78,2.61-14.45,4.91-15.21-37.11,15.8-83.73,34-114.76,14.6-24.85,29.5-50.55,34.67-79.33a91,91,0,0,0,1.51-23.64c-.55-6.33-5.12-12.52-5.62-18.06-.34-3.66-.81-2.63,1.93-7.09a77.5,77.5,0,0,1,4.76-6.22q6.38-8.25,13-16.24c0,5.7-2.51,21,2.79,25.18C770.66,105.46,777,101.59,775.69,96.28Z"/></g><g id="p"><path d="M521,132.67c-2.08-7.53-11.56-2.23-15.69-.71C512,117.72,468,128,463.15,128.24c-7.21.31-24.09,2-28.95-4.86-3.68-5.22.35-13.29,1.94-18.68,5.08-17.3,13.8-39.17,1.3-55.49C422.28,29.4,388.6,32,366.77,34.75,349.7,36.9,333.19,41.38,316.66,46,312,47.3,294.47,49.23,299,57.89c3.71,7.11,20.76-1.12,26.69-2.76,30-8.3,116.68-29.94,105.45,26.64-3.12,15.69-18.53,40.1-1.65,52.33,16.1,11.66,47.52,4.47,65.33,1.85-24.36,9.4-48.3,20.19-73,28.64-9.26,3.16-26.12,11.77-35.43,7.94-6.1-2.51-3.71-5.58-6.05-12-6.14-16.91-25.49-11.86-39.47-9.32-12.05,2.19-28.15,4.09-38.82,10.41-2.17-20.6-3.36-41.14-4-61.85-.29-9.87-.26-19.74-.53-29.61-.13-4.5,2-18.58-3-22.25-2.71-2-6.54-1.12-8.94,1-5.19,4.54-.27,6.74.47,10.77,2.43,13.23.47,28.81.86,42.21.54,18.58,1.37,37.11,3.41,55.59,4.36,39.6,9.16,79.62,11.82,119.37.81,12,1.7,24,2.39,36,.56,9.82-2.42,30.46,2,39.4,1.68,3.39,5.26,7.24,9.49,3.26,3.33-3.14,1.16-11.73,1-15.16-.59-11.72-1-23.45-1.76-35.17-2.91-44.64-9.28-88.89-12.36-133.5,5.31,2.07,16.21-3.94,21.48-5.34q10.25-2.72,20.69-4.47c12.45-2.11,22.37-6.51,25.81,7.43,2.48,10.07,5.13,13.75,16.61,14.63,24.75,1.88,52.53-14,75.12-23.16q17.85-7.2,35.79-14.15C503.88,144.43,522.93,141.7,521,132.67Z"/><path d="M379.64,76.33c5.72-6.1,12.86-12.91,16.8-20.43,3.47-6.62,1.08-15.22-7.86-8.48C383,51.59,378.27,61.2,373.49,66.49c-3.82,4.24-7.72,8.39-11.52,12.65-4.85,5.44-17.91,15.89-19.49,23.29-4.51,21,33.88-5.23,39.35-8-5.86,8.38-17.68,17.12-18.94,27.91-.52,4.37,1.17,10,7,7.82,3.62-1.35,3.78-5.73,5.54-8.6,4.67-7.6,27.26-28.13,19-38.54-6-7.63-20.11,2.44-26,5.73C372.14,84.56,375.83,80.39,379.64,76.33Z"/></g><g id="i"><path d="M248.56,141.33c-6.37-26.23-16.94-51.45-23.85-77.53-1.94-7.33-1.65-8.42-10.26-7.94-7,.38-13.94,1.75-20.88,2.39-13.26,1.23-26.52,2.22-39.7,4.17-26.88,4-52.66,6.25-79.85,7.89-11.9.72-23.84,1-35.75.93-6.22,0-20.57-3.19-25.17,1.69-3,3.2-2.39,9.53-2.84,13.66-1.65,15.32-2,30.72-3.85,46-.89,7.55-8.8,37.07-4.31,39-4.79.86-.27,8.21,2.53,10.06,6,4,17.09,1.37,23.9.86,11-.83,34.64,3,34.14-13.29-.09-2.9-1.19-6.64-1.41-9.11-.11-1.21,1.73-3.2,1.09-5-1-2.65-3.92-2.58-5-4.1-3.92-5.8-6.35-14.33-9.21-20.75C41.1,114.4,34.94,98,27.36,82.28c25.51.63,50.78-1.72,76.25-2.19-3.06,3-.12,14.25-.12,18.72q0,15.85,0,31.7c0,39.61.58,79.52,3.29,119,1,14.79.9,29.6,2.06,44.38.63,7.95-1.14,30.56,5.44,36.76,7,6.59,25,3.69,34.67,4.88,15.41,1.9,30.87,3.55,46.27,5.58-45.48,4.72-91.37,2.44-136.79,7.58-7.47.84-14.88,2.22-22.36,2.82-5.45.43-23,3.29-11.27,10.89,3.82,2.48,11.12.36,15.55-.11,22.54-2.36,44.78-4.57,67.46-5.55,25.51-1.1,50.83-1.47,76.32-3.42,4.45-.34,58.16-2.35,35.7-16.92-7.16-4.65-18.4-5.78-26.71-6.81-17.88-2.2-35.83-4.76-53.76-6.39-10.85-1-16.46,2.84-17.74-8.3-1.64-14.37-2.38-29.06-2.72-43.52-1-40-3.82-79.93-4.15-120-.14-17.79,0-35.58,0-53.37,0-5.55,1.27-14-3.42-18.17,15-.61,29.61-4.26,44.43-6.45,16.61-2.44,33.37-3.12,50-5.26-2.34,18.32-4.56,36.69-7.59,54.91-1.3,7.79-8.67,28.86-4.88,37.07s18.25,6.43,26,6.35c6.74-.06,16,1.49,22.5-.57C252.69,162.46,250.79,150.51,248.56,141.33ZM238.9,155c-10.9.73-24.07,1.82-34.81-.19.55-3.53,31.12-2.3,34.87-2.29Zm-29.58-31.19c3-16.63,5-33.56,7-50.32,6.67,22.67,13.93,45.15,20.65,67.81-10.31,0-20.54,0-30.77,1.49C207.26,136.51,208.2,130.16,209.32,123.85Zm-170,13.94c2.42,5.45,5.13,10.73,7.28,16.29-10.43,2.52-21.51,1.09-32.11,2.58,3-20.67,4.38-41.21,6.22-62C26.91,109,32.82,123.56,39.3,137.79Zm11,27.27,1.15,4.55c-13.11.46-26.59,3.46-39.69,2.39.71-5.47,5.51-4.47,10.34-4.82C25,167,50.38,165.32,50.3,165.06Z"/></g></svg>