<svg xmlns="https://www.w3.org/2000/svg" viewBox="0 0 158 110.01"><defs><style>.cls-1{fill:#3fa9f5;}</style></defs><title>ipm-icon-social-justice</title><g id="p"><path class="cls-1" d="M15,109.12c0-7-.33-5.58,5.65-6.83a58.84,58.84,0,0,0,19.79-8.21c24-15.48,31.31-45,31.31-72C54,26.23,36.26,30.17,18.5,34.12l14,22L0,56.37,10.18,38.26c1.77-3.16,3-6.76,5.88-8.45,3.11-1.8,8.54-2.06,12-2.9l21.8-5.26,53-12.78,22.82-5.51c4-1,9.77-3.56,13.89-3.35,3.92.21,3.79,2.29,6.23,6.45L158,27.12H124l13.25-22.5L111.3,11.4,92.59,16.29c-2.81.73-10.69,1.28-12.8,3.34s-.19,9,.24,12.17a148.71,148.71,0,0,0,7.41,31C91.71,74.43,98,86,107.83,93.87a41,41,0,0,0,16.2,7.9c1.52.35,9.29.29,10,1.1.19.23.32,5.91-.12,6.25-2.59,2-14.27,0-17.54,0H15Z"/></g></svg>