<svg xmlns="https://www.w3.org/2000/svg" viewBox="0 0 153.12 123"><defs><style>.cls-1{fill:#7ac943;}</style></defs><title>ipm-icon-edugraphics</title><g id="p"><path class="cls-1" d="M148.7,12.65H112.87L84.29,1.34,59.62,12.65H11.7v2H55.25L23.81,29.07c2.94.62,8.13,1.75,14.11,3l-.8,7.53H11.7v2H36.91l-1.25,11.8h7.11l-1.35-11.8H51.7a23.08,23.08,0,0,0-1.54,5.59,36.75,36.75,0,0,0,3.65,1.38c-.56,3.91-1,8.16-1.7,12.49-.21,1.21-.45,2.39-.71,3.54H11.7v2H50.92a56.58,56.58,0,0,1-11,22H11.7v2H38.16A65.09,65.09,0,0,1,17,105.78,57.84,57.84,0,0,0,48.3,90.65h58.55C118.74,105.74,141,106,141,106a66.31,66.31,0,0,1-24.81-15.38H148.7v-2H114.25a48.85,48.85,0,0,1-11.57-22h46v-2H102.25c-.17-.88-.32-1.78-.45-2.69-.68-5.14-1-10.31-2.06-15,1.3-.53,2.6-1.1,3.92-1.74,0,0-.5-1.44-1.45-3.59H148.7v-2H101.3A57.74,57.74,0,0,0,97,32.14l23-9.4,9-3.69-11.12-4.4H148.7Zm-52.57,52H59.4c.79-4.66,1-9.63,1.71-14.1a67,67,0,0,0,32.27-1.32C94.93,54.31,95.45,60,96.13,64.65ZM53.35,38.24c-.26.47-.52.93-.75,1.41H41.19l-.8-7C55.87,36.05,75.1,40.3,75.1,40.3l14.5-5.25L75.16,43Zm52,50.41H49.78a56.39,56.39,0,0,0,9.24-22H96.44c.16.89.32,1.73.51,2.5A55,55,0,0,0,105.37,88.65Z"/><polygon class="cls-1" points="8.26 114.74 8.26 0 0 0 0 114.74 0 114.74 0 123 153.12 123 153.12 114.74 8.26 114.74"/></g></svg>