<svg xmlns="https://www.w3.org/2000/svg" viewBox="0 0 103.15 126.51"><defs><style>.cls-1{fill:#b375e6;}</style></defs><title>ipm-icon-sexuality</title><g id="p"><path class="cls-1" d="M86.61,71c.18,6.93,1.83,29.89,1.83,29.89l9.49-8s3.77,28.58,4.67,33.61c1.45-7.14-.45-42.67-.45-42.67l-9.45,8.7S88.64,77.5,86.61,71Z"/><path class="cls-1" d="M91.06,118.49c-4.13-3.39-17.33-15.29-17.33-15.29l7-1s-6.37-6.65-9-9.58c5,2.5,16.53,11.3,16.53,11.3l-7.44.67S88.06,114.17,91.06,118.49Z"/><path class="cls-1" d="M80.55,69.42l.12.92c.11.75.2,1.44.29,2.1,1,7.3,1.09,9.17,1.09,9.17l15.09-2.46a53.83,53.83,0,0,1-3-12.09Z"/><path class="cls-1" d="M52.75,91.1c5.55,2.36,10.13,4.72,12.12,6.69L75.33,86a78.71,78.71,0,0,0-11.75-8.36C60.16,82,55.69,87.49,52.75,91.1Z"/><path class="cls-1" d="M69,.56C46,6.12,46.59,29,46.59,29s-16.7-10.37-29.44-1.76c-26.76,18.07-19,44.22,1.41,51.83,0,0,18.07,5.4,31.89,11,2.85-4.24,6.77-10.06,9.65-14.3l-.54-.25C51.48,72,35,67.77,30.28,67S14.47,60.33,14.79,52.65c.4-9.79,9.8-14.82,18.84-14.13,10,.75,20,6.86,23.64,10.56,1-13.8.69-24.36,10.28-31.15S86,19.06,85.77,28.68s-7.5,24.71-5.7,37.37c0,.11,0,.22.05.33l13.65-1.94c-.14-1.23-.27-2.52-.36-3.89-.81-11.8,3.94-24.56,5.7-35.62C101.38,10.66,83.69-3,69,.56Z"/></g></svg>