<svg xmlns="https://www.w3.org/2000/svg" viewBox="0 0 379 379.58"><title>ipm-icon-support</title><g id="p"><path d="M120,190.47c.06,5.56,2,13.28,7.47,15.91,6.88,3.29,12.09-4,13.68-9.87,1.91-7.13.63-14.89.37-22.15-.33-9.11-.08-18.25-.53-27.35-.29-6-1.33-14.2-7.44-17.16-7.26-3.51-12.43,4.38-13.88,10.53-1.65,7-.59,14.39-.35,21.45C119.66,171.37,119.92,180.93,120,190.47Z"/><path d="M154.26,122.5c.87,22.18-1.72,45.09.94,67.15.75,6.27,2.76,14.71,10.59,14.67,7.6,0,10.24-7.22,10.91-13.67.76-7.32-.41-14.7-.63-22-.4-13.66.56-27.38,0-41-.29-7-1.27-16.58-10-17.78C158.54,108.79,154,115.71,154.26,122.5Z"/><path d="M188.1,117.15c0,8.1,0,16.19,0,24.28,0,6.4-.23,13.79,3.46,19.35,3.5,5.29,9.69,6.79,14.33,1.9s4.86-12.87,5-19.25c.15-7.54.06-15.12.06-22.66,0-6-.42-13.94-5.61-17.94C196.23,95.84,188.05,109.37,188.1,117.15Z"/><path d="M223.76,156.13c1.78,11.1,14.45,14.35,19.11,3.2,2.67-6.37,1.53-13.82,1.4-20.51-.14-7.57,1.06-15.31-.16-22.82-1.61-10-13.06-18.13-19.23-6.29-3.35,6.42-2.2,14.32-2.06,21.26C223,139.36,222.43,147.79,223.76,156.13Z"/><path d="M126.88,249.06c5.6,23.79,33.36,28.1,54,29.36,8.88.54,18,.17,26.85-.14,7.86-.28,16-.38,23.36-3.42,9.2-3.81,18.27-9.5,23.45-18.26,5.84-9.89,5.29-22.52,5.52-33.62.18-8.64.26-17.32-.41-25.94-.53-6.75-1-13.46-7.41-17.14-12.89-7.39-31.06-3.29-45-2.55-8.31.44-22-1.79-22.53,10.48-.55,13,14.78,11.44,23.31,10.85,7.31-.5,14.65-.66,22-1,1.83-.07,7.27-1.3,8.62-.08s.13,6.7.1,8.52c-.17,9.13.07,18.25-.45,27.38-.55,9.64-2.41,15.56-11.68,20.09-7.53,3.68-16,3.44-24.22,3.43-8.73,0-17.52-.26-26.23-1-11.95-1-22.56-4.66-29.65-14.6-3-4.29-7-7.24-12.54-5.41A11.09,11.09,0,0,0,126.88,249.06Z"/></g></svg>