<svg xmlns="https://www.w3.org/2000/svg" viewBox="0 0 134.25 123.56"><defs><style>.cls-1{fill:#d5b70e;}</style></defs><title>ipm-icon-gender</title><g id="p"><path class="cls-1" d="M98.71.64l-.83,8.22,18.37,1.85L96,25.45s-2-2.82-8.53-6.69C77.16,12.7,65.29,13,65.29,13c-17.7,0-28.71,13-28.71,13l-2.49-1.86,7.38-9.77-6.55-5-7.43,9.85L16.05,10.66,32.62,7.42V0L0,4.1,4.05,36.71l8.13-1.44L10.11,18.59l11.41,8.52-6.88,9.37,6.59,5,6.9-9.4,2.72,2c-3.56,5.61-5.1,14.4-4.58,24.2s6.8,20.63,15.85,27.54a42.57,42.57,0,0,0,19.55,7.92l-.13,5.82H46.35v9h14v15h10V107.67l15-.23.4-7.42-14.42-.6.12-5.63a47,47,0,0,0,14.34-4.52c7.91-3.86,14.65-11.4,19.6-26.34,3.78-11.42-3.33-29.29-3.33-29.29l19.42-15L116.89,36.1l8,2.2,9.41-33.8ZM90.82,74.33C80.33,89,56.17,85.08,45.82,76.09,36.33,67.84,30.22,48.7,43.39,33c7.68-9.2,21-10.13,21-10.13s18.52-2.18,27.38,10C101.69,46.42,102.65,57.83,90.82,74.33Z"/></g></svg>